<svg xmlns="http://www.w3.org/2000/svg" xmlns:xlink="http://www.w3.org/1999/xlink" width="603" zoomAndPan="magnify" viewBox="0 0 452.25 216.749994" height="289" preserveAspectRatio="xMidYMid meet" version="1.2"><defs><clipPath id="f7661aeebb"><path d="M 416.796875 80.859375 L 427 80.859375 L 427 94 L 416.796875 94 Z M 416.796875 80.859375 "/></clipPath><clipPath id="a9e03e94de"><path d="M 428 80.859375 L 440.210938 80.859375 L 440.210938 94 L 428 94 Z M 428 80.859375 "/></clipPath><clipPath id="80bff7d834"><path d="M 40 68 L 113 68 L 113 167.949219 L 40 167.949219 Z M 40 68 "/></clipPath><clipPath id="ba6a81e6fd"><path d="M 10 100 L 69 100 L 69 167.949219 L 10 167.949219 Z M 10 100 "/></clipPath><clipPath id="17a5b9b69a"><path d="M 31 39.167969 L 50 39.167969 L 50 58 L 31 58 Z M 31 39.167969 "/></clipPath></defs><g id="8ebccffaa7"><g clip-rule="nonzero" clip-path="url(#f7661aeebb)"><path style=" stroke:none;fill-rule:nonzero;fill:#ffffff;fill-opacity:1;" d="M 420.476562 93.265625 L 420.476562 82.964844 L 416.796875 82.964844 L 416.796875 80.867188 L 426.652344 80.867188 L 426.652344 82.964844 L 422.980469 82.964844 L 422.980469 93.265625 Z M 420.476562 93.265625 "/></g><g clip-rule="nonzero" clip-path="url(#a9e03e94de)"><path style=" stroke:none;fill-rule:nonzero;fill:#ffffff;fill-opacity:1;" d="M 428.234375 93.265625 L 428.234375 80.867188 L 431.980469 80.867188 L 434.230469 89.324219 L 436.453125 80.867188 L 440.210938 80.867188 L 440.210938 93.265625 L 437.882812 93.265625 L 437.882812 83.503906 L 435.421875 93.265625 L 433.011719 93.265625 L 430.558594 83.503906 L 430.558594 93.265625 Z M 428.234375 93.265625 "/></g><g clip-rule="nonzero" clip-path="url(#80bff7d834)"><path style=" stroke:none;fill-rule:nonzero;fill:#a1ddfb;fill-opacity:1;" d="M 63.160156 68.910156 L 40.46875 68.910156 L 40.46875 100.765625 L 75.789062 100.765625 L 75.789062 136.085938 C 75.789062 147.332031 69.457031 165.441406 52.714844 167.941406 L 63.160156 167.941406 C 90.503906 167.941406 112.675781 145.773438 112.675781 118.425781 C 112.675781 91.078125 90.507812 68.910156 63.160156 68.910156 Z M 63.160156 68.910156 "/></g><path style=" stroke:none;fill-rule:nonzero;fill:#a1ddfb;fill-opacity:1;" d="M 0 58.695312 L 29.910156 58.695312 L 29.910156 88.601562 L 0 88.601562 Z M 0 58.695312 "/><g clip-rule="nonzero" clip-path="url(#ba6a81e6fd)"><path style=" stroke:none;fill-rule:nonzero;fill:#a1ddfb;fill-opacity:1;" d="M 40.46875 136.085938 L 40.46875 100.765625 L 10.832031 100.765625 L 10.832031 167.941406 L 37.210938 167.941406 C 63.167969 167.941406 68.507812 149.015625 68.507812 136.085938 Z M 40.46875 136.085938 "/></g><g clip-rule="nonzero" clip-path="url(#17a5b9b69a)"><path style=" stroke:none;fill-rule:nonzero;fill:#a1ddfb;fill-opacity:1;" d="M 31.328125 39.175781 L 49.242188 39.175781 L 49.242188 57.085938 L 31.328125 57.085938 Z M 31.328125 39.175781 "/></g><g style="fill:#a1ddfb;fill-opacity:1;"><g transform="translate(118.369569, 157.440863)"><path style="stroke:none" d="M 70.480469 -52.589844 C 70.480469 -63.972656 62.617188 -64.785156 54.214844 -64.785156 L 21.957031 -64.785156 C 13.554688 -64.785156 5.691406 -63.972656 5.691406 -52.589844 L 5.691406 -12.199219 C 5.691406 -0.8125 13.554688 0 21.957031 0 L 54.214844 0 C 62.617188 0 70.480469 -0.8125 70.480469 -12.199219 Z M 21.820312 -45.539062 C 21.820312 -49.335938 24.125 -49.472656 27.785156 -49.472656 L 48.386719 -49.472656 C 52.046875 -49.472656 54.351562 -49.335938 54.351562 -45.539062 L 54.351562 -19.246094 C 54.351562 -15.453125 52.046875 -15.316406 48.386719 -15.316406 L 27.785156 -15.316406 C 24.125 -15.316406 21.820312 -15.453125 21.820312 -19.246094 Z M 21.820312 -45.539062 "/></g></g><g style="fill:#a1ddfb;fill-opacity:1;"><g transform="translate(194.533209, 157.440863)"><path style="stroke:none" d="M 70.480469 -15.316406 L 27.785156 -15.316406 C 24.125 -15.316406 21.820312 -15.453125 21.820312 -19.246094 L 21.820312 -45.539062 C 21.820312 -49.335938 24.125 -49.472656 27.785156 -49.472656 L 70.480469 -49.472656 L 70.480469 -64.785156 L 21.957031 -64.785156 C 13.554688 -64.785156 5.691406 -63.972656 5.691406 -52.589844 L 5.691406 -12.199219 C 5.691406 -0.8125 13.554688 0 21.957031 0 L 70.480469 0 Z M 70.480469 -15.316406 "/></g></g><g style="fill:#a1ddfb;fill-opacity:1;"><g transform="translate(268.121942, 157.440863)"><path style="stroke:none" d="M 45.539062 -24.804688 L 45.539062 -40.117188 L 4.472656 -40.117188 L 4.472656 -24.804688 Z M 45.539062 -24.804688 "/></g></g><g style="fill:#a1ddfb;fill-opacity:1;"><g transform="translate(318.129748, 157.440863)"><path style="stroke:none" d="M 22.5 -74.953125 L 22.5 -90.402344 L 6.371094 -90.402344 L 6.371094 -74.953125 Z M 22.5 0 L 22.5 -64.785156 L 6.371094 -64.785156 L 6.371094 0 Z M 22.5 0 "/></g></g><g style="fill:#a1ddfb;fill-opacity:1;"><g transform="translate(346.996046, 157.440863)"><path style="stroke:none" d="M 55.027344 0 L 71.15625 0 L 71.15625 -52.589844 C 71.15625 -63.972656 63.296875 -64.785156 54.890625 -64.785156 L 6.371094 -64.785156 L 6.371094 0 L 22.5 0 L 22.5 -49.472656 L 49.0625 -49.472656 C 52.722656 -49.472656 55.027344 -49.335938 55.027344 -45.539062 Z M 55.027344 0 "/></g></g></g></svg>